<svg viewBox="0 0 31.18 32.31">
<path class="cls-1" d="M49.33,2635.53a10.15,10.15,0,0,1,10.06,10.06q0,5.65-5.35,8.89a9.93,9.93,0,0,1-4.48,1.17H49q-4,0-7.55-3.81a10.7,10.7,0,0,1-2.13-6.24,10,10,0,0,1,4.33-8.22A10.22,10.22,0,0,1,49.33,2635.53Zm-7.11,9.84v0.36a6.87,6.87,0,0,0,3.89,6.24,6.42,6.42,0,0,0,3,.73h0.44q4.17,0,6.38-4.33a7.48,7.48,0,0,0,.51-2.65v-0.36a6.83,6.83,0,0,0-3.08-5.65,7,7,0,0,0-4.11-1.25q-4.56,0-6.68,4.76A7.37,7.37,0,0,0,42.22,2645.37Z" transform="translate(-39.27 -2623.33)"/>
<path class="cls-1" d="M70,2637.61l0.06,0,0.08,0a0.2,0.2,0,0,0,.09-0.27,0.48,0.48,0,0,0-.08-0.12,1.64,1.64,0,0,0,0-.45c-0.2-1.89-2.59-2.5-4.13-2.65-2-.19-4.22.12-5.48,1.86a0.23,0.23,0,0,0,0,.23l-0.22,0-0.07,0a0.12,0.12,0,0,0-.16.06,8.31,8.31,0,0,0-3.6,1.28,13,13,0,0,0,.7-2,0.14,0.14,0,0,0,.09-0.18l0-.09,0.06-.25a0.27,0.27,0,0,0,.27,0c2.17-1.24,2.81-3.77,2.84-6.11,0-1.8-.39-4.64-2.55-5.11a2,2,0,0,0-.52,0,0.6,0.6,0,0,0-.13-0.11,0.24,0.24,0,0,0-.32.07l-0.07.09a0.16,0.16,0,0,0,0,.07c-1.32.54-1.78,2.77-2,4a6.61,6.61,0,0,0,.32,3.68c0.48,1.22,1.22,2.31,1.69,3.52a12.67,12.67,0,0,1-1.9,4.52,0.12,0.12,0,0,0,.19.16,7.25,7.25,0,0,0,1.25-1.86,0.09,0.09,0,0,0,.08,0,10.88,10.88,0,0,1,4-1.21c1,0.52,1.86,1.25,2.85,1.77a5.68,5.68,0,0,0,3.12.61C67.5,2638.87,69.44,2638.69,70,2637.61Z" transform="translate(-39.27 -2623.33)"/>
<path class="cls-1" d="M55,2639.86a0.31,0.31,0,0,1-.2-0.07,0.3,0.3,0,0,1-.06-0.4,12.26,12.26,0,0,0,1.86-4.4,18.06,18.06,0,0,0-.82-1.7,18,18,0,0,1-.85-1.77,6.81,6.81,0,0,1-.33-3.78c0.28-1.61.77-3.51,2-4.09l0,0,0.07-.09a0.42,0.42,0,0,1,.56-0.12l0.11,0.08a2.15,2.15,0,0,1,.49.05c2.56,0.55,2.71,4.19,2.7,5.29,0,2.11-.56,4.91-2.93,6.27a0.48,0.48,0,0,1-.22.07v0.09a0.33,0.33,0,0,1-.11.34,13.79,13.79,0,0,1-.47,1.46,9,9,0,0,1,3.12-1,0.3,0.3,0,0,1,.32-0.06h0a0.44,0.44,0,0,1,.08-0.18c1.38-1.91,3.84-2.11,5.65-1.94,0.95,0.09,4.05.56,4.29,2.81a1.84,1.84,0,0,1,0,.42l0.06,0.1a0.38,0.38,0,0,1-.16.5l-0.08,0,0,0c-0.62,1-2.29,1.27-3.69,1.36a5.88,5.88,0,0,1-3.21-.63,15.57,15.57,0,0,1-1.43-.89,15.58,15.58,0,0,0-1.37-.85,10.49,10.49,0,0,0-3.91,1.18l-0.06,0a7.37,7.37,0,0,1-1.24,1.81A0.29,0.29,0,0,1,55,2639.86Zm5.48-3.47,0,0a15.29,15.29,0,0,1,1.46.9,15.29,15.29,0,0,0,1.4.87,5.45,5.45,0,0,0,3,.59c0.79-.05,2.87-0.2,3.44-1.24l0-.09H70l0.07,0s0,0,0,0l-0.05-.08-0.06-.06v-0.09a1.47,1.47,0,0,0,0-.4c-0.21-2-3.09-2.41-4-2.49-1.72-.16-4,0-5.32,1.79a0,0,0,0,0,0,.05l0.09,0.22-0.24,0-0.22,0h0l-0.07,0h0l0,0H60.11a10.22,10.22,0,0,0-2.15.53,13.4,13.4,0,0,1,2.49-.53H60.5ZM57,2623.81l0,0.09-0.09,0c-1.29.53-1.72,2.94-1.88,3.85a6.46,6.46,0,0,0,.31,3.59,17.77,17.77,0,0,0,.83,1.73,17.77,17.77,0,0,1,.86,1.79l0,0.05V2635a14.12,14.12,0,0,1-1.34,3.66,8.13,8.13,0,0,0,.54-1l0-.08,0.09-.21a12.84,12.84,0,0,0,.69-2l0-.09,0.06,0v0l0-.08v0l0.06-.25,0.05-.23,0.21,0.12a0.09,0.09,0,0,0,.09,0c2.22-1.27,2.72-3.94,2.75-6,0-1-.12-4.44-2.41-4.93a1.81,1.81,0,0,0-.47,0H57.27l-0.06-.06-0.09-.08a0.06,0.06,0,0,0-.08,0Z" transform="translate(-39.27 -2623.33)"/>
</svg>
